<svg xmlns="http://www.w3.org/2000/svg" xmlns:svg="http://www.w3.org/2000/svg" id="Layer_1" width="64" height="64" x="0" y="0" enable-background="new 0 0 64 64" version="1.1" viewBox="0 0 64 64" xml:space="preserve"><metadata id="metadata3465"/><circle style="fill:#fff;fill-opacity:1;stroke:none;stroke-width:.86799997;stroke-linecap:butt;stroke-linejoin:round;stroke-miterlimit:4;stroke-dasharray:none;stroke-opacity:1" id="path3353" cx="28.812" cy="51.597" r="11.704"/><path style="fill:#00aeef;fill-opacity:1;stroke:none;stroke-width:.86799997;stroke-linecap:butt;stroke-linejoin:round;stroke-miterlimit:4;stroke-dasharray:none;stroke-opacity:1" id="path3357" d="m 45.725395,17.885782 c 0,8.761397 -5.445788,18.076586 -13.686512,32.34994 -1.500512,2.598963 -4.262091,2.583208 -5.637335,-0.256211 C 21.73742,40.349642 13.99757,24.279796 13.99757,17.885782 c 0,-8.7613969 7.102516,-15.8639123 15.863913,-15.8639123 8.761397,6e-7 15.863912,7.1025157 15.863912,15.8639123 z"/><g id="g3451" transform="translate(-0.68651276,-0.60874807)"><path style="fill:#f15a2b;stroke:#f15a2b;stroke-width:2;stroke-linecap:round" id="path3453" d="M 63,58.385 C 63,60.934 60.934,63 58.385,63 l -14.77,0 C 41.066,63 39,60.934 39,58.385 l 0,-14.77 C 39,41.066 41.066,39 43.615,39 l 14.77,0 C 60.934,39 63,41.066 63,43.615 l 0,14.77 z"/><path style="opacity:.4;fill:#fcb040" id="path3455" d="m 62,51 0,-7 c 0,-2.209 -1.791,-4 -4,-4 l -14,0 c -2.209,0 -4,1.791 -4,4 l 0,7 22,0 z"/></g><text style="font-style:normal;font-weight:400;font-size:33.29687119px;line-height:125%;font-family:Sans;letter-spacing:0;word-spacing:0;fill:#fff;fill-opacity:1;stroke:none;stroke-width:1px;stroke-linecap:butt;stroke-linejoin:miter;stroke-opacity:1" id="text3467" x="36.501" y="60.893" transform="scale(0.99984312,1.0001569)" xml:space="preserve"><tspan id="tspan3469" x="36.501" y="60.893">+</tspan></text></svg>