<svg xmlns="http://www.w3.org/2000/svg" xmlns:xlink="http://www.w3.org/1999/xlink" id="Layer_1" width="64" height="64" x="0" y="0" enable-background="new 0 0 64 64" version="1.1" viewBox="0 0 64 64" xml:space="preserve"><g><rect width="46" height="34" x="9" y="15" fill="#FFF" opacity=".5"/><path fill="#56595D" d="M56,50H8V14h48V50z M10,48h44V16H10V48z"/></g><g><rect width="30" height="14" x="17" y="25" fill="#FCB040" opacity=".5"/><path fill="#56595D" d="M48,40H16V24h32V40z M18,38h28V26H18V38z"/></g><rect width="6" height="6" x="6" y="12" fill="#F15A2B"/><rect width="6" height="6" x="52" y="12" fill="#F15A2B"/><rect width="6" height="6" x="52" y="46" fill="#F15A2B"/><rect width="6" height="6" x="6" y="46" fill="#F15A2B"/><rect width="6" height="6" x="14" y="36" fill="#F15A2B"/><rect width="6" height="6" x="14" y="22" fill="#F15A2B"/><rect width="6" height="6" x="44" y="22" fill="#F15A2B"/><rect width="6" height="6" x="44" y="36" fill="#F15A2B"/></svg>