<svg xmlns="http://www.w3.org/2000/svg" xmlns:svg="http://www.w3.org/2000/svg" id="svg2" width="24mm" height="24mm" version="1.1" viewBox="0 0 85.039 85.039"><metadata id="metadata7"/><g id="layer1" transform="translate(0,-967.32301)"><rect style="color:#000;clip-rule:nonzero;display:inline;overflow:visible;visibility:visible;opacity:1;isolation:auto;mix-blend-mode:normal;color-interpolation:sRGB;color-interpolation-filters:linearRGB;solid-color:#000;solid-opacity:1;fill:none;fill-opacity:1;fill-rule:nonzero;stroke:none;stroke-width:1;stroke-linecap:butt;stroke-linejoin:miter;stroke-miterlimit:4;stroke-dasharray:none;stroke-dashoffset:0;stroke-opacity:1;color-rendering:auto;image-rendering:auto;shape-rendering:auto;text-rendering:auto;enable-background:accumulate" id="rect4178" width="85.341" height="85.341" x="-.119" y="967.379"/></g><g id="layer2"><g id="g4259" transform="matrix(0.80109719,0,0,0.80109719,24.652999,5.1052129)"><g id="g5432" transform="matrix(0.99880985,0,0,0.99880985,-2.0781679,1.3124868)"><g id="g5656" transform="matrix(0.90792114,0,0,0.90792114,-12.775277,7.8672283)"><path id="path5644" d="m 41.224,10.248 c 0,5.664 -4.589,10.26 -10.253,10.26 -5.664,0 -10.254,-4.596 -10.254,-10.26 C 20.717,4.584 25.306,0 30.97,0 36.634,0 41.224,4.583 41.224,10.248 Z"/><path id="path5646" d="M 31.217,93.425 C 17.623,93.425 6.569,82.37 6.569,68.782 c 0,-9.16 5.078,-17.076 12.507,-21.321 l 0,-7.435 C 7.877,44.766 0,55.872 0,68.782 0,85.989 13.998,100 31.217,100 42.643,100 52.558,93.737 57.988,84.544 L 54.616,76.101 C 51.478,86.106 42.246,93.425 31.217,93.425 Z"/><path id="path5648" d="m 76.999,78.431 -7.409,0 c 0,0 -4.485,-12.793 -5.742,-16.191 -0.808,-2.246 -2.91,-3.88 -5.437,-3.88 l -17.988,0 0,-12.579 17.064,0 c 2.259,0 4.095,-1.823 4.095,-4.088 0,-2.265 -1.836,-4.115 -4.095,-4.115 l -17.064,0 c 0,0 -0.983,-14.922 -9.453,-14.922 -5.801,0 -7.787,4.707 -7.787,10.508 l 0,26.341 c 0,5.808 4.713,10.521 10.508,10.521 0.176,0 0.319,-0.092 0.488,-0.092 0.163,0.007 0.312,0.092 0.488,0.092 l 21.94,0 7.298,18.242 13.093,0 c 2.708,0 4.915,-2.207 4.915,-4.922 0.001,-2.721 -2.206,-4.915 -4.914,-4.915 z"/></g></g></g></g></svg>