<svg xmlns="http://www.w3.org/2000/svg" xmlns:svg="http://www.w3.org/2000/svg" id="svg2" width="30mm" height="24mm" version="1.1" viewBox="0 0 106.299 85.039"><metadata id="metadata7"/><g id="layer1" transform="translate(0,-967.32301)"><rect style="color:#000;clip-rule:nonzero;display:inline;overflow:visible;visibility:visible;opacity:1;isolation:auto;mix-blend-mode:normal;color-interpolation:sRGB;color-interpolation-filters:linearRGB;solid-color:#000;solid-opacity:1;fill:none;fill-opacity:1;fill-rule:nonzero;stroke:none;stroke-width:1;stroke-linecap:butt;stroke-linejoin:miter;stroke-miterlimit:4;stroke-dasharray:none;stroke-dashoffset:0;stroke-opacity:1;color-rendering:auto;image-rendering:auto;shape-rendering:auto;text-rendering:auto;enable-background:accumulate" id="rect4178" width="85.341" height="85.341" x="-.119" y="967.379"/></g><g id="layer2"><g id="g4259" transform="matrix(0.80109719,0,0,0.80109719,24.652999,5.1052129)"><g id="g5432" transform="matrix(0.99880985,0,0,0.99880985,-2.0781679,1.3124868)"><path id="path5749" d="m 59.381946,39.747331 -1.863412,12.714971 c -2.83189,-0.390097 -5.031856,-2.80306 -5.031856,-5.742037 0,-0.578379 -0.467764,-1.050851 -1.050852,-1.050851 -0.574852,0 -1.050266,0.471883 -1.050266,1.050851 0,3.209634 -2.610659,5.820292 -5.820291,5.820292 -3.209632,0 -5.819703,-2.610658 -5.819703,-5.820292 0,-0.578379 -0.467765,-1.050851 -1.050853,-1.050851 -0.574852,0 -1.050854,0.471883 -1.050854,1.050851 0,3.209634 -2.610658,5.820292 -5.819702,5.820292 -3.209633,0 -5.819703,-2.610658 -5.819703,-5.820292 0,-0.578379 -0.467765,-1.050851 -1.050854,-1.050851 -0.57485,0 -1.050853,0.471883 -1.050853,1.050851 0,2.938977 -2.199967,5.34782 -5.031857,5.737919 l -1.862823,-12.710853 -5.672018,0 8.602758,58.83837 37.512989,0 8.60217,-58.83837 -5.67202,0 z m -7.781962,53.211654 -27.809953,0 -5.622595,-38.464994 c 2.462386,-0.348911 4.596453,-1.761033 5.786753,-3.833319 1.370934,2.376482 3.940406,3.981004 6.870556,3.981004 2.938388,0 5.50786,-1.605112 6.870557,-3.981004 1.370933,2.376482 3.939817,3.981004 6.870555,3.981004 2.938389,0 5.50786,-1.605112 6.870556,-3.981004 1.1903,2.072286 3.324368,3.488526 5.787343,3.833319 l -5.623772,38.464994 z"/></g></g></g></svg>