<svg xmlns="http://www.w3.org/2000/svg" xmlns:svg="http://www.w3.org/2000/svg" id="svg2" width="24mm" height="24mm" version="1.1" viewBox="0 0 85.039 85.039"><metadata id="metadata7"/><g id="layer1" transform="translate(0,-967.32301)"><rect style="color:#000;clip-rule:nonzero;display:inline;overflow:visible;visibility:visible;opacity:1;isolation:auto;mix-blend-mode:normal;color-interpolation:sRGB;color-interpolation-filters:linearRGB;solid-color:#000;solid-opacity:1;fill:none;fill-opacity:1;fill-rule:nonzero;stroke:none;stroke-width:1;stroke-linecap:butt;stroke-linejoin:miter;stroke-miterlimit:4;stroke-dasharray:none;stroke-dashoffset:0;stroke-opacity:1;color-rendering:auto;image-rendering:auto;shape-rendering:auto;text-rendering:auto;enable-background:accumulate" id="rect4178" width="85.341" height="85.341" x="-.119" y="967.379"/></g><g id="layer2"><g id="g4259" transform="matrix(0.80109719,0,0,0.80109719,24.652999,5.1052129)"><g id="g5432" transform="matrix(0.99880985,0,0,0.99880985,-2.0781679,1.3124868)"><g id="g5436" transform="translate(2.9398213,0.08459715)"><path id="path5422" d="m 38.668,59.7 0,37.030104 c 0,0.97 -0.794,1.771 -1.771,1.771 -0.977,0 -1.771,-0.801 -1.771,-1.771 L 35.126,59.7 c 0,-1.529 -1.244,-2.779 -2.787,-2.779 -1.523,0 -2.773,1.25 -2.773,2.779 0,0.971 -0.801,1.765 -1.771,1.765 -0.977,0 -1.771,-0.794 -1.771,-1.765 0,-2.598 1.568,-4.798 3.795,-5.774 -4.485,-6.667 -6.979,-14.017 -8.32,-20.15 L 13.415,56.68 c -0.006,0.013 -0.032,0.026 -0.039,0.032 0.293,0.983 5.273,18.568 -0.638,38.49 -0.593,2.005 -2.422,3.287 -4.408,3.287 C 7.9,98.489 7.457,98.43 7.021,98.301 4.586,97.585 3.193,95.02 3.916,92.585 8.617,76.731 5.29,62.181 4.639,59.655 -0.355,49.922 -1.324,40.937 1.768,32.936 6.703,20.163 20.251,15.111 20.824,14.896 c 2.376,-0.873 5.039,0.364 5.898,2.747 0.306,0.84 0.208,2.819 0.208,2.995 0,0.163 0.17,17.61 9.46,30.443 0.866,1.204 0.859,2.754 0.117,3.951 1.302,1.153 2.161,2.793 2.161,4.668 z"/><path id="path5424" d="m 42.94,9.01 c 0,4.98 -4.043,9.023 -9.011,9.023 -4.987,0 -9.036,-4.043 -9.036,-9.023 0,-4.993 4.049,-9.01 9.036,-9.01 4.968,0 9.011,4.017 9.011,9.01 z"/></g></g></g></g></svg>