<svg xmlns="http://www.w3.org/2000/svg" xmlns:svg="http://www.w3.org/2000/svg" id="svg2" width="30mm" height="24mm" version="1.1" viewBox="0 0 106.299 85.039"><metadata id="metadata7"/><g id="layer1" transform="translate(0,-967.32301)"><rect style="color:#000;clip-rule:nonzero;display:inline;overflow:visible;visibility:visible;opacity:1;isolation:auto;mix-blend-mode:normal;color-interpolation:sRGB;color-interpolation-filters:linearRGB;solid-color:#000;solid-opacity:1;fill:none;fill-opacity:1;fill-rule:nonzero;stroke:none;stroke-width:1;stroke-linecap:butt;stroke-linejoin:miter;stroke-miterlimit:4;stroke-dasharray:none;stroke-dashoffset:0;stroke-opacity:1;color-rendering:auto;image-rendering:auto;shape-rendering:auto;text-rendering:auto;enable-background:accumulate" id="rect4178" width="85.341" height="85.341" x="-.119" y="967.379"/></g><g id="layer2"><g id="g4259" transform="matrix(0.80109719,0,0,0.80109719,24.652999,5.1052129)"><g id="g5432" transform="matrix(0.99880985,0,0,0.99880985,-2.0781679,1.3124868)"><path id="path5794" d="m 69.83894,36.431214 -14.278215,0 0,-17.064299 -35.730505,0 0,17.064299 -14.2782162,0 c -7.9582417,0 -14.4777536,6.519512 -14.4777536,14.477755 l 0,33.198974 c 0,7.958243 6.5195119,14.477758 14.4777536,14.477758 l 64.2860042,0 c 7.958242,0 14.477756,-6.519515 14.477756,-14.477758 l 0,-33.198974 C 84.31651,42.950726 77.797182,36.431214 69.83894,36.431214 Z m -36.969697,35.239119 -10.720083,0 0,10.707963 -8.305105,0 0,-10.707963 -10.7135569,0 0,-8.297645 10.7135569,0 0,-10.715424 8.304172,0 0,10.714492 10.721016,0 0,8.298577 z m 16.033039,-35.239119 -22.412687,0 0,-10.404924 22.412687,0 0,10.404924 z"/></g></g></g></svg>