<svg xmlns="http://www.w3.org/2000/svg" xmlns:svg="http://www.w3.org/2000/svg" id="svg2" width="24mm" height="24mm" version="1.1" viewBox="0 0 85.039 85.039"><metadata id="metadata7"/><g id="layer1" transform="translate(0,-967.32301)"><rect style="color:#000;clip-rule:nonzero;display:inline;overflow:visible;visibility:visible;opacity:1;isolation:auto;mix-blend-mode:normal;color-interpolation:sRGB;color-interpolation-filters:linearRGB;solid-color:#000;solid-opacity:1;fill:none;fill-opacity:1;fill-rule:nonzero;stroke:none;stroke-width:1;stroke-linecap:butt;stroke-linejoin:miter;stroke-miterlimit:4;stroke-dasharray:none;stroke-dashoffset:0;stroke-opacity:1;color-rendering:auto;image-rendering:auto;shape-rendering:auto;text-rendering:auto;enable-background:accumulate" id="rect4178" width="85.341" height="85.341" x="-.119" y="967.379"/></g><g id="layer2"><g id="g4259" transform="matrix(0.80109719,0,0,0.80109719,24.652999,5.1052129)"><g id="g5416" transform="matrix(1.0583896,0,0,1.0583896,-242.29462,-217.73603)"><path id="path5406" d="m 258.347,208.353 c 0,4.616 -3.737,8.34 -8.347,8.34 -4.61,0 -8.346,-3.724 -8.346,-8.34 0,-4.616 3.737,-8.353 8.346,-8.353 4.609,0 8.347,3.737 8.347,8.353 z"/><path id="path5408" d="m 269.368,251.276 c 0,0 -4.381,-21.29 -6.465,-25.56 l 0,-0.013 c 0,0 -0.006,0 -0.006,-0.013 -2.084,-4.264 -4.167,-6.836 -12.077,-6.836 l -0.82,0 -0.82,0 c -7.91,0 -9.993,2.572 -12.077,6.836 0,0.013 -0.006,0.013 -0.006,0.013 l 0,0.013 c -2.083,4.271 -6.465,25.56 -6.465,25.56 -0.326,1.432 0.566,2.864 2.005,3.189 0.202,0.053 0.404,0.078 0.599,0.078 1.217,0 2.318,-0.846 2.604,-2.07 l 5.925,-21.06 -5.756,35.201 5.547,0 1.725,31.387 c 0,1.101 0.898,1.999 1.979,1.999 1.133,0 2.024,-0.898 2.024,-1.999 l 1.706,-31.387 1.009,0 1.009,0 1.706,31.387 c 0,1.101 0.892,1.999 2.024,1.999 1.081,0 1.979,-0.898 1.979,-1.999 l 1.726,-31.387 5.54,0 -5.748,-35.201 5.925,21.061 c 0.286,1.225 1.387,2.07 2.604,2.07 0.195,0 0.396,-0.025 0.599,-0.078 1.439,-0.325 2.331,-1.758 2.005,-3.19 z"/></g></g></g></svg>