<svg xmlns="http://www.w3.org/2000/svg" xmlns:svg="http://www.w3.org/2000/svg" id="svg2" width="24mm" height="24mm" version="1.1" viewBox="0 0 85.039 85.039"><metadata id="metadata7"/><g id="layer1" transform="translate(0,-967.32301)"><rect style="color:#000;clip-rule:nonzero;display:inline;overflow:visible;visibility:visible;opacity:1;isolation:auto;mix-blend-mode:normal;color-interpolation:sRGB;color-interpolation-filters:linearRGB;solid-color:#000;solid-opacity:1;fill:none;fill-opacity:1;fill-rule:nonzero;stroke:none;stroke-width:1;stroke-linecap:butt;stroke-linejoin:miter;stroke-miterlimit:4;stroke-dasharray:none;stroke-dashoffset:0;stroke-opacity:1;color-rendering:auto;image-rendering:auto;shape-rendering:auto;text-rendering:auto;enable-background:accumulate" id="rect4178" width="85.341" height="85.341" x="-.119" y="967.379"/></g><g id="layer2"><g id="g4259" transform="matrix(0.80109719,0,0,0.80109719,24.652999,5.1052129)"><g id="g5432" transform="matrix(0.99880985,0,0,0.99880985,-2.0781679,1.3124868)"><g id="g5624" transform="matrix(0.24124194,0,0,0.24124194,-11.447397,10.240665)"><ellipse id="ellipse5556" cx="138.049" cy="79.813" rx="40.817" ry="40.819" transform="matrix(0.74898498,-0.66258698,0.66258698,0.74898498,0,0)"/><path id="path5558" d="m 158.52571,21.241265 c -0.486,0 -0.963,0.034 -1.435,0.087 -2.518,-0.423 -5.134,-0.651 -7.86,-0.651 -2.731,0 -5.349,0.228 -7.868,0.653 -0.472,-0.053 -0.949,-0.087 -1.434,-0.087 -21.262,-0.051 -38.636,6.458 -50.408004,17.768 -11.798,11.266 -17.355,26.659 -17.311,41.925 0.025,13.868 4.381,27.875005 12.576,40.150005 -6.945,54.028 -2.23,109.697 -2.23,109.697 0,4.775 8.962,8.307 22.227004,10.608 l 0,106.677 c 0,10.019 8.122,18.141 18.142,18.141 10.016,0 18.142,-8.122 18.142,-18.141 l 0,-103.561 c 5.419,0.124 10.909,0.124 16.327,0 l 0,103.561 c 0,10.019 8.123,18.141 18.142,18.141 10.016,0 18.142,-8.122 18.142,-18.141 l 0,-106.677 c 13.263,-2.301 22.224,-5.835 22.224,-10.608 0,0 3.949,-46.651 -0.708,-95.988 3.957,-2.425 7.489,-5.344 10.481,-8.688 9.119,-10.09 13.51,-23.281 13.51,-36.619005 0,-16.527 -6.736,-33.751 -20.475,-46.809 -13.719,-13.093 -34.273,-21.491 -60.184,-21.438 z m 47.67,88.457005 c -4.343,4.365 -10.221,7.304 -19.601,7.391 -3.45,0 -6.576,1.381 -8.865,3.614 -3.277,-1.798 -6.092,-4.523 -7.986,-8.064 -5.198,-9.719 -1.535,-21.810005 8.183,-27.011005 9.719,-5.198 21.81,-1.533 27.01,8.185 2.723,5.091 2.995,10.824005 1.259,15.885005 z m -51.951,56.666 c -8.615,4.606 -19.332,1.359 -23.94,-7.255 -0.588,-1.099 -1.045,-2.235 -1.382,-3.387 l -19.062,-3.705 c -5.079,-0.988 -8.399,-5.907 -7.411,-10.99 0.058,-0.297 0.173,-0.568 0.258,-0.854 7.378,5.645 16.021,10.239 25.741,13.375 3.086,0.996 6.281,1.845 9.577,2.533 6.566,1.372 13.521,2.134 20.851,2.134 0.069,0 0.136,0 0.205,0 7.013,0 12.699,-5.688 12.699,-12.702 0,-1.364 -0.221,-2.677 -0.619,-3.907 -1.649,-5.1 -6.431,-8.79 -12.08,-8.79 -1.466,-0.004 -2.898,-0.051 -4.307,-0.125 -3.625,-0.189 -7.068,-0.595 -10.323,-1.208 l 5.57,-2.981 -5.134,-4.523 c -3.883,-3.421 -4.258,-9.341 -0.835,-13.227 3.423,-3.884 9.347,-4.258 13.229,-0.836 l 17.449,15.375 c -0.038,0.101 -0.076,0.203 -0.113,0.306 -0.461,1.316 -0.724,2.724 -0.724,4.197 0,2.959 1.022,5.673 2.718,7.831 1.551,1.972 3.666,3.478 6.11,4.26 -0.462,5.804 -3.762,11.261 -9.278,14.211 l -19.199,10.268 z m 43.188,-108.459005 c 1.352,1.022 2.618,2.087 3.786,3.19 8.6,8.162 12.565,18.711 12.569,28.391 0,4.973 -1.05,9.59 -2.926,13.523005 -3.023,-16.375005 -7.337,-31.971005 -13.429,-45.104005 z"/></g></g></g></g></svg>