<svg xmlns="http://www.w3.org/2000/svg" xmlns:svg="http://www.w3.org/2000/svg" id="svg2" width="24mm" height="24mm" version="1.1" viewBox="0 0 85.039 85.039"><metadata id="metadata7"/><g id="layer1" transform="translate(0,-967.32301)"><rect style="color:#000;clip-rule:nonzero;display:inline;overflow:visible;visibility:visible;opacity:1;isolation:auto;mix-blend-mode:normal;color-interpolation:sRGB;color-interpolation-filters:linearRGB;solid-color:#000;solid-opacity:1;fill:none;fill-opacity:1;fill-rule:nonzero;stroke:none;stroke-width:1;stroke-linecap:butt;stroke-linejoin:miter;stroke-miterlimit:4;stroke-dasharray:none;stroke-dashoffset:0;stroke-opacity:1;color-rendering:auto;image-rendering:auto;shape-rendering:auto;text-rendering:auto;enable-background:accumulate" id="rect4178" width="85.341" height="85.341" x="-.119" y="967.379"/></g><g id="layer2"><g id="g4259" transform="matrix(0.80109719,0,0,0.80109719,24.652999,5.1052129)"><g id="g5432" transform="matrix(0.99880985,0,0,0.99880985,-2.0781679,1.3124868)"><g id="g5537" transform="matrix(1.0620833,0,0,1.0620833,3.7816953,-7.6226288)"><path id="path5527" d="M 5.831,15.338 C 8.363,14.381 7.777,8.333 7.777,8.333 7.777,3.73 11.514,0 16.13,0 c 4.603,0 8.346,3.73 8.346,8.333 0,4.622 -3.743,8.359 -8.346,8.359 -1.549,0 -2.923,-0.547 -4.154,-1.263 -3.45,0.248 -7.715,0.495 -6.145,-0.091 z"/><path id="path5529" d="m 38.845,43.854 c 0,-6.602 -4.746,-12.07 -11.003,-13.242 -2.129,-6.751 -5.586,-11.771 -11.257,-11.771 -7.676,0 -7.969,2.578 -10.045,6.849 0,0 -0.006,0 -0.006,0.007 l 0,0.013 C 4.45,29.974 0.069,55.007 0.069,55.007 c -0.332,1.438 0.566,2.871 1.999,3.209 0.208,0.039 0.41,0.065 0.605,0.065 1.217,0 2.318,-0.84 2.604,-2.07 l 5.925,-24.805 -2.832,35.208 4.381,0 1.719,31.381 c 0,1.094 0.898,2.005 1.992,2.005 1.126,0 2.012,-0.911 2.012,-2.005 l 1.712,-31.381 10.593,0 c 0,0 0.293,-4.427 0.24,-10.547 4.609,-2.148 7.826,-6.796 7.826,-12.213 z m -9.414,4.994 c 0,0 -5.808,-3.158 -5.808,-6.712 0,-1.686 1.367,-3.053 3.06,-3.053 1.394,0 2.377,1.022 2.748,2.311 0.377,-1.289 1.354,-2.311 2.747,-2.311 1.692,0 3.066,1.367 3.066,3.053 10e-4,3.554 -5.813,6.712 -5.813,6.712 z"/></g></g></g></g></svg>