<svg xmlns="http://www.w3.org/2000/svg" xmlns:svg="http://www.w3.org/2000/svg" id="svg2" width="30mm" height="24mm" version="1.1" viewBox="0 0 106.299 85.039"><metadata id="metadata7"/><g id="layer1" transform="translate(0,-967.32301)"><rect style="color:#000;clip-rule:nonzero;display:inline;overflow:visible;visibility:visible;opacity:1;isolation:auto;mix-blend-mode:normal;color-interpolation:sRGB;color-interpolation-filters:linearRGB;solid-color:#000;solid-opacity:1;fill:none;fill-opacity:1;fill-rule:nonzero;stroke:none;stroke-width:1;stroke-linecap:butt;stroke-linejoin:miter;stroke-miterlimit:4;stroke-dasharray:none;stroke-dashoffset:0;stroke-opacity:1;color-rendering:auto;image-rendering:auto;shape-rendering:auto;text-rendering:auto;enable-background:accumulate" id="rect4178" width="85.341" height="85.341" x="-.119" y="967.379"/></g><g id="layer2"><g id="g4259" transform="matrix(0.80109719,0,0,0.80109719,24.652999,5.1052129)"><g id="g5432" transform="matrix(0.99880985,0,0,0.99880985,-2.0781679,1.3124868)"><g id="g5673" transform="matrix(1.3252805,0,0,1.3252806,-293.62512,-285.21028)"><path id="path5663" d="m 221.602,210.404 c -11.928,0 -21.602,4.635 -21.602,10.352 l 0,64.752 0,2.317 0,1.771 3.639,0 0,-1.771 35.912,0 0,1.771 3.652,0 0,-1.771 0,-2.317 0,-64.752 c 0,-5.717 -9.668,-10.352 -21.601,-10.352 z m 15.989,43.216 -2.559,0 0,-8.373 2.559,0 0,8.373 z m -34.863,-32.864 c 0,-3.177 7.188,-7.617 18.874,-7.617 11.693,0 18.874,4.44 18.874,7.617 l -37.748,0 z"/><path id="path5665" d="m 278.405,210.404 c -11.933,0 -21.608,4.635 -21.608,10.352 l 0,64.752 0,2.317 0,1.771 3.646,0 0,-1.771 35.905,0 0,1.771 3.652,0 0,-1.771 0,-2.317 0,-64.752 c 0,-5.717 -9.668,-10.352 -21.595,-10.352 z m 15.99,43.216 -2.565,0 0,-8.373 2.565,0 0,8.373 z m -34.871,-32.864 c 0,-3.177 7.188,-7.617 18.881,-7.617 11.692,0 18.867,4.44 18.867,7.617 l -37.748,0 z"/></g></g></g></g></svg>