<svg xmlns="http://www.w3.org/2000/svg" xmlns:svg="http://www.w3.org/2000/svg" id="svg5628" width="256" height="256" version="1.1"><metadata id="metadata5633"/><g id="layer1" transform="translate(0,-796.36218)"><g id="g6534" transform="matrix(0.6213861,0,0,-0.6213861,-31.187164,1063.5527)"><path id="path6536" d="M 309,287 H 203 L 107,63 H 405 z M 267,74 h -20 v 38 h 20 V 74 z m 0,76 h -20 v 39 h 20 v -39 z m 0,77 h -20 v 41 h 20 V 227 z M 448,385 V 221 h -79 q 2,4 2,10 0,47 -34.5,81.5 Q 302,347 256,347 208,347 173.5,312.5 139,278 139,231 q 0,-2 1,-5 1,-3 1,-5 H 64 v 164 h 384 z" style="fill:currentColor"/></g></g></svg>